<?xml version="1.0" encoding="utf-8"?>
<svg width="48px" height="48px" viewBox="0 0 48 48" version="1.1" xmlns:xlink="http://www.w3.org/1999/xlink" xmlns="http://www.w3.org/2000/svg">
  <defs>
    <path d="M0 0L48 0L48 48L0 48L0 0Z" id="path_1" />
    <path d="M0 0L48 0L48 37.92L0 37.92L0 0Z" id="path_2" />
    <clipPath id="mask_1">
      <use xlink:href="#path_1" />
    </clipPath>
    <clipPath id="mask_2">
      <use xlink:href="#path_2" />
    </clipPath>
  </defs>
  <g id="icn-settings-.icn-lg">
    <path d="M0 0L48 0L48 48L0 48L0 0Z" id="icn-settings-.icn-lg-(BackgroundMask)" fill="none" fill-rule="evenodd" stroke="none" />
    <g clip-path="url(#mask_1)">
      <g id="carbon:notebook" transform="translate(0 5)">
        <path d="M0 0L48 0L48 37.92L0 37.92L0 0Z" id="carbon:notebook-(BackgroundMask)" fill="none" fill-rule="evenodd" stroke="none" />
        <g clip-path="url(#mask_2)">
          <path d="M41.1395 8.62402L41.1395 12.0693L29.1416 12.0693L29.1416 8.62402L41.1395 8.62402Z" id="Vector" fill="#FFFFFF" stroke="none" />
          <path d="M41.1395 17.2373L41.1395 20.6826L29.1416 20.6826L29.1416 17.2373L41.1395 17.2373Z" id="Vector" fill="#FFFFFF" stroke="none" />
          <path d="M41.1395 25.8506L41.1395 29.2959L29.1416 29.2959L29.1416 25.8506L41.1395 25.8506Z" id="Vector" fill="#FFFFFF" stroke="none" />
          <path d="M3.43187 0.0112305C2.52299 0.0121426 1.65161 0.375424 1.00893 1.02135C0.366264 1.66727 0.00481376 2.54307 0.00390625 3.45655L0.00390625 34.4644C0.00481376 35.3779 0.366264 36.2537 1.00893 36.8996C1.65161 37.5455 2.52299 37.9088 3.43187 37.9097L44.5674 37.9097C45.4761 37.9084 46.3473 37.5449 46.9898 36.8991C47.6324 36.2533 47.994 35.3777 47.9953 34.4644L47.9953 3.45655C47.9944 2.54307 47.633 1.66727 46.9903 1.02135C46.3477 0.375424 45.4763 0.0121426 44.5674 0.0112305L3.43187 0.0112305ZM22.2856 3.45655L22.2856 34.4644L3.43187 34.4644L3.43187 3.45655L22.2856 3.45655ZM25.7136 3.45655L44.5674 3.45655L44.5708 34.4644L25.7136 34.4644L25.7136 3.45655Z" id="Vector" fill="#FFFFFF" stroke="none" />
        </g>
      </g>
    </g>
  </g>
</svg>